<svg xmlns="http://www.w3.org/2000/svg" viewBox="0 0 657.74 237.47"><defs><style>.cls-1{fill:#ad8d4a;}</style></defs><title>brilat_logo</title><g id="Layer_2" data-name="Layer 2"><g id="Layer_1-2" data-name="Layer 1"><path class="cls-1" d="M0,146.34H18.35c24.68,0,37.1,7.09,37.1,21.39A17.58,17.58,0,0,1,49,181.91c-4.18,3.54-10.64,6-19.12,7.22,10.26.76,17.85,3.29,22.91,7.58a21.18,21.18,0,0,1,7.47,16.34,23.34,23.34,0,0,1-5.06,14.81,23.66,23.66,0,0,1-13,7.85C36.84,237,29.87,237.47,21,237.47H0Zm13,41.52h3.42c9.61,0,16.07-1.53,19.61-4.55s5.19-7.85,5.19-14.69c0-4.69-.63-8.36-2-10.89a14,14,0,0,0-6.2-5.94c-2.79-1.52-7.35-2.16-14-2.16-1.78,0-4.43,0-5.95.13Zm0,45.83H24.56c7.08,0,12.4-1,15.94-4.57s5.32-9.12,5.32-16.45-2-12.91-6-16.46-11-5.32-21.14-5.32c-1.64,0-4.17.13-5.69.13Z"/><path class="cls-1" d="M145.7,146.34c8.62,0,15.57.5,20.89,2.16s9.74,3.79,13,7.34a18.75,18.75,0,0,1,4.94,13,20.11,20.11,0,0,1-6.45,15.06c-4.43,4.18-10.76,7.46-19.12,8.6,3.68,1.78,9.75,4.17,18.11,15.45,0,0,6.7,9.11,15.06,29.48H181.78c-1-4.17-14.43-43.28-39.12-43.28h-3.91v43.28H125.84V146.34Zm3.67,44.81c3.55,0,6.58-1.26,9.12-2a15.36,15.36,0,0,0,6.33-4,15.18,15.18,0,0,0,3.8-6,23.91,23.91,0,0,0,1.39-9c0-6.33-1.53-11.14-4.69-14.94s-10.38-5.06-20.89-5.06h-5.68v41Z"/><path class="cls-1" d="M272.42,146.34v91.13H259.26V146.34Z"/><path class="cls-1" d="M404.82,234.44v3H341.41V146.34h13.16v88.1Z"/><path class="cls-1" d="M512.68,204.07H479.13l-12.78,33.4h-4.81l37.72-91.13h2.66l38.73,91.13h-14.3c-4.81-11.77-6.84-16.7-6.84-16.7Zm-1.15-3L495.59,162.8,480,201Z"/><path class="cls-1" d="M657.74,149.38h-38v88.09H606.61V149.38H569l.12-3h88.6Z"/><polygon class="cls-1" points="276.66 25.93 276.66 36.87 261.8 44.6 261.8 81.76 293.63 97.53 359.71 63.88 359.71 27.93 328.16 11.66 296.27 27.93 296.27 63.78 317.18 74.94 306.18 80.65 285.9 70.11 285.9 21.29 328.16 0 370.02 21 370.02 70.21 293.53 109.06 251.36 87.75 251.36 38.48 276.66 25.93"/><polygon class="cls-1" points="379.33 25.72 379.33 37.29 394.44 44.47 394.37 81.58 362.81 97.44 349.94 90.93 338.92 96.6 362.81 109.06 404.71 87.75 404.71 38.28 379.33 25.72"/></g></g></svg>